HIERARCHY
ROOT Hips
{
	OFFSET 0.000000 0.000000 0.000000
	CHANNELS 6 Xposition Yposition Zposition Yrotation Xrotation Zrotation 
	JOINT LeftHip
	{
		OFFSET 0.077119 0.000138 -0.000015
		CHANNELS 3 Yrotation Xrotation Zrotation
		JOINT LeftKnee
		{
			OFFSET 0.000000 -0.426014 0.000072
			CHANNELS 3 Yrotation Xrotation Zrotation
			JOINT LeftAnkle
			{
				OFFSET 0.000000 -0.387606 0.000906
				CHANNELS 3 Yrotation Xrotation Zrotation
				JOINT LeftToe
				{
					OFFSET 0.000000 -0.086837 0.172228
					CHANNELS 3 Yrotation Xrotation Zrotation
					End Site
					{
						OFFSET 0.000000 0.000000 0.000000
					}
				}
			}
		}
	}
	JOINT RightHip
	{
		OFFSET -0.077119 0.000158 -0.000018
		CHANNELS 3 Yrotation Xrotation Zrotation
		JOINT RightKnee
		{
			OFFSET 0.000000 -0.426014 0.000072
			CHANNELS 3 Yrotation Xrotation Zrotation
			JOINT RightAnkle
			{
				OFFSET 0.000000 -0.387606 0.000906
				CHANNELS 3 Yrotation Xrotation Zrotation
				JOINT RightToe
				{
					OFFSET 0.000000 -0.086837 0.172228
					CHANNELS 3 Yrotation Xrotation Zrotation
					End Site
					{
						OFFSET 0.000000 0.000000 0.000000
					}
				}
			}
		}
	}
	JOINT Chest
	{
		OFFSET 0.000000 0.093501 -0.010389
		CHANNELS 3 Yrotation Xrotation Zrotation
		JOINT Chest3
		{
			OFFSET 0.000000 0.181972 -0.008899
			CHANNELS 3 Yrotation Xrotation Zrotation
			JOINT Chest4
			{
				OFFSET 0.000000 0.086970 -0.000061
				CHANNELS 3 Yrotation Xrotation Zrotation
				JOINT Neck
				{
					OFFSET 0.000000 0.116360 0.000000
					CHANNELS 3 Yrotation Xrotation Zrotation
					JOINT Head
					{
						OFFSET 0.000000 0.079760 0.000228
						CHANNELS 3 Yrotation Xrotation Zrotation
						End Site
						{
							OFFSET 0.000000 0.000000 0.000000
						}
					}
				}
				JOINT LeftCollar
				{
					OFFSET 0.021903 0.065262 0.000000
					CHANNELS 3 Yrotation Xrotation Zrotation
					JOINT LeftShoulder
					{
						OFFSET 0.106219 0.000000 0.000000
						CHANNELS 3 Yrotation Xrotation Zrotation
						JOINT LeftElbow
						{
							OFFSET 0.266680 0.000000 0.000000
							CHANNELS 3 Yrotation Xrotation Zrotation
							JOINT LeftWrist
							{
								OFFSET 0.205457 0.000000 0.000046
								CHANNELS 3 Yrotation Xrotation Zrotation
								End Site
								{
									OFFSET 0.000000 0.000000 0.000000
								}
							}
						}
					}
				}
				JOINT RightCollar
				{
					OFFSET -0.021903 0.065262 0.000000
					CHANNELS 3 Yrotation Xrotation Zrotation
					JOINT RightShoulder
					{
						OFFSET -0.106219 0.000000 0.000000
						CHANNELS 3 Yrotation Xrotation Zrotation
						JOINT RightElbow
						{
							OFFSET -0.266680 0.000000 0.000000
							CHANNELS 3 Yrotation Xrotation Zrotation
							JOINT RightWrist
							{
								OFFSET -0.205457 0.000000 0.000046
								CHANNELS 3 Yrotation Xrotation Zrotation
								End Site
								{
									OFFSET 0.000000 0.000000 0.000000
								}
							}
						}
					}
				}
			}
		}
	}
}
MOTION
Frames: 11
Frame Time: 0.016667
0.000000 0.000000 0.000000 -64.432059 16.734954 -6.814308 2.960426 -23.577484 3.527599 -7.815955 10.576310 -0.091628 8.152171 -4.922218 1.346662 0.000000 -0.000000 0.000000 -11.497111 -9.889186 -1.136442 -0.542489 7.349659 -0.231789 -4.709039 4.992402 13.008087 0.053736 -16.314463 -0.374917 5.756232 13.072082 -1.964667 5.312578 5.781457 -1.780870 1.981259 10.163549 -0.594992 -1.388860 13.728591 1.757608 -3.318469 -10.460663 3.868522 -1.886512 -4.587400 -7.448977 13.300722 1.752935 -73.835125 -32.777994 -54.555738 -93.409049 -9.109767 -5.189630 41.137781 4.629465 2.249404 12.095627 40.517627 -53.902737 57.531722 66.082020 -30.735011 13.294909 -12.518391 2.979116 -34.536049 
0.000000 0.000000 0.000000 -64.370367 16.895259 -6.971762 2.788220 -23.657323 3.697397 -7.753335 10.582217 -0.081516 8.136164 -4.925578 1.425431 0.000000 -0.000000 0.000000 -11.487614 -9.932634 -0.993183 -0.531511 7.331052 -0.206727 -4.815759 5.210427 12.983887 0.043682 -16.575749 -0.299876 5.890371 13.110085 -1.926310 5.427817 5.815139 -1.748977 2.025373 10.175947 -0.581625 -1.599513 13.566514 1.922767 -3.789545 -10.742992 4.271614 -1.949933 -4.634113 -7.365038 13.388867 1.779286 -73.883185 -33.266203 -54.495202 -93.029088 -9.073199 -5.144352 41.062090 4.515524 2.294951 12.128311 40.923427 -54.737907 56.824449 65.512000 -29.980637 13.788403 -13.318801 4.226120 -32.706612 
0.000000 0.000000 0.000000 -64.290435 17.067495 -7.116479 2.655387 -23.766368 3.850075 -7.773548 10.601846 -0.096790 8.149115 -4.922413 1.492723 0.000000 -0.000000 0.000000 -11.528387 -9.994587 -0.846078 -0.552474 7.319583 -0.192157 -4.858152 5.423936 12.968751 0.034827 -16.833450 -0.235390 5.991592 13.145603 -1.894200 5.514455 5.846645 -1.722167 2.058597 10.187625 -0.570585 -1.816740 13.401367 2.095686 -4.278004 -11.028005 4.693887 -1.969494 -4.699156 -7.285194 13.455093 1.810566 -73.892731 -33.531016 -54.456047 -92.858519 -9.072067 -5.093532 41.077904 4.450265 2.335088 12.147509 41.267364 -55.524154 56.194329 64.832903 -30.170251 14.512772 -12.965880 4.679936 -31.715428 
0.000000 0.000000 0.000000 -64.202989 17.245441 -7.254831 2.547443 -23.891733 3.995499 -7.823064 10.630896 -0.123395 8.160551 -4.921050 1.544683 0.000000 -0.000000 0.000000 -11.601991 -10.065290 -0.694239 -0.584625 7.312674 -0.182112 -4.867258 5.625913 12.955832 0.026468 -17.081245 -0.176273 6.068450 13.174579 -1.866015 5.579844 5.872380 -1.698494 2.083724 10.197225 -0.560981 -2.036788 13.240740 2.270702 -4.774122 -11.301969 5.122760 -1.964788 -4.764716 -7.211221 13.523684 1.844726 -73.877935 -33.649728 -54.438031 -92.819582 -9.094917 -5.043438 41.144326 4.414902 2.374702 12.167409 41.600226 -56.243678 55.620510 64.205265 -30.818208 15.277313 -11.948735 4.711321 -31.244161 
0.000000 0.000000 0.000000 -64.111872 17.421260 -7.389227 2.466412 -24.018972 4.126796 -7.877487 10.667015 -0.137800 8.154083 -4.924856 1.585657 0.000000 -0.000000 0.000000 -11.702722 -10.133600 -0.538595 -0.586230 7.313493 -0.168452 -4.883951 5.804863 12.936391 0.017653 -17.314784 -0.115941 6.125953 13.189174 -1.842211 5.628488 5.885347 -1.678410 2.102432 10.202082 -0.552839 -2.252743 13.101154 2.439448 -5.260192 -11.535190 5.538428 -1.961844 -4.799871 -7.151412 13.567652 1.868531 -73.851835 -33.740080 -54.476437 -92.770187 -9.119737 -5.009858 41.200144 4.414429 2.432616 12.192461 42.343329 -56.814387 54.917528 63.873401 -31.629783 15.383148 -11.049724 4.518685 -31.371345 
0.000000 0.000000 0.000000 -64.013146 17.595945 -7.520153 2.429280 -24.151153 4.234238 -7.925307 10.715473 -0.125044 8.099106 -4.937030 1.608093 0.000000 -0.000000 0.000000 -11.851676 -10.196275 -0.373742 -0.517658 7.323429 -0.144140 -4.932604 5.946213 12.899034 0.007359 -17.524516 -0.047721 6.157192 13.189505 -1.825715 5.654544 5.885640 -1.664371 2.112481 10.202228 -0.547163 -2.459358 12.987675 2.596735 -5.723360 -11.719287 5.928097 -1.968735 -4.795127 -7.111808 13.582201 1.877234 -73.800817 -33.830700 -54.597749 -92.675738 -9.139413 -5.006033 41.213474 4.467733 2.531448 12.217527 43.864085 -57.141307 53.914242 64.062838 -32.819172 14.404533 -10.541381 4.045564 -32.383903 
0.000000 0.000000 0.000000 -63.910688 17.768518 -7.647072 2.419220 -24.285586 4.326971 -7.977931 10.770952 -0.099979 8.026156 -4.954373 1.619678 0.000000 -0.000000 0.000000 -12.027741 -10.255992 -0.204778 -0.418512 7.340997 -0.116322 -4.989020 6.064555 12.855180 -0.003370 -17.719998 0.021636 6.168919 13.175673 -1.813528 5.663701 5.873363 -1.653827 2.116057 10.197707 -0.542904 -2.661850 12.895407 2.747472 -6.175402 -11.862869 6.303002 -1.977289 -4.759687 -7.086019 13.572267 1.875614 -73.738450 -33.893197 -54.775404 -92.570643 -9.160939 -5.018993 41.216432 4.556140 2.648270 12.247550 45.795403 -57.297726 52.775843 64.653769 -34.157349 12.703246 -10.087374 3.377226 -34.001249 
0.000000 0.000000 0.000000 -63.820051 17.928137 -7.770984 2.387573 -24.398888 4.426902 -8.045362 10.815305 -0.083925 8.010624 -4.970641 1.647460 0.000000 -0.000000 0.000000 -12.161801 -10.311105 -0.048754 -0.365922 7.365088 -0.098069 -5.021104 6.192171 12.830339 -0.012393 -17.925555 0.078579 6.186556 13.139666 -1.797394 5.677700 5.841376 -1.639858 2.121461 10.185814 -0.537056 -2.869203 12.825765 2.897909 -6.635370 -11.962144 6.678140 -1.989073 -4.690563 -7.063381 13.525065 1.865051 -73.718492 -33.960815 -54.965286 -92.415909 -9.183630 -5.025243 41.243785 4.628303 2.733668 12.302268 47.472737 -57.466396 51.806920 65.287293 -34.697650 10.810748 -9.628681 2.889456 -35.461813 
0.000000 0.000000 0.000000 -63.745986 18.067723 -7.894543 2.320864 -24.477116 4.548354 -8.135929 10.837421 -0.091045 8.077693 -4.981011 1.696885 0.000000 -0.000000 0.000000 -12.219135 -10.359006 0.090307 -0.406915 7.399814 -0.098791 -5.009580 6.341356 12.837664 -0.018568 -18.153504 0.116198 6.221384 13.067161 -1.771241 5.705933 5.776949 -1.617256 2.132283 10.161793 -0.527363 -3.088908 12.789216 3.047292 -7.115790 -11.997111 7.053783 -2.007188 -4.564864 -7.037583 13.420544 1.842785 -73.774587 -34.054734 -55.165880 -92.164265 -9.211300 -5.007278 41.333717 4.653817 2.745116 12.408666 48.747663 -57.719032 51.119538 65.780843 -33.696459 8.692477 -9.076918 2.727615 -36.704474 
0.000000 0.000000 0.000000 -63.683676 18.194262 -8.015239 2.232704 -24.533871 4.677429 -8.241379 10.848447 -0.107215 8.202268 -4.990352 1.762200 0.000000 -0.000000 0.000000 -12.234407 -10.403096 0.215981 -0.494491 7.441178 -0.108937 -4.973390 6.499750 12.863963 -0.022892 -18.391553 0.141362 6.261882 12.972395 -1.741369 5.738805 5.692740 -1.591387 2.144854 10.130373 -0.516125 -3.313880 12.775156 3.195273 -7.603574 -11.988092 7.426834 -2.028385 -4.405460 -7.014812 13.278415 1.811728 -73.872881 -34.156960 -55.378799 -91.860512 -9.240330 -4.982028 41.447852 4.662443 2.725178 12.539631 49.763213 -58.003656 50.611241 66.113541 -31.891953 6.523149 -8.607043 2.716724 -37.805983 
0.000000 0.000000 0.000000 -63.634330 18.317947 -8.126394 2.114903 -24.586756 4.794232 -8.346866 10.863764 -0.111481 8.384410 -5.006965 1.853445 0.000000 -0.000000 0.000000 -12.242603 -10.450997 0.322436 -0.564729 7.475957 -0.113075 -4.937706 6.662675 12.895261 -0.026429 -18.627112 0.161155 6.299430 12.890155 -1.718048 5.769726 5.619652 -1.571212 2.156637 10.103065 -0.507184 -3.531127 12.753307 3.349132 -8.079810 -11.991659 7.808567 -2.044858 -4.278051 -7.003226 13.145358 1.781868 -73.965965 -34.240519 -55.564588 -91.604759 -9.258929 -4.978038 41.506215 4.693660 2.752171 12.634007 50.305360 -58.335436 50.253356 66.197482 -30.610232 5.112855 -8.584552 2.720132 -38.187444 
